<svg width="24" height="26" viewBox="0 0 24 26" fill="none" xmlns="http://www.w3.org/2000/svg">
<path d="M11.8505 15.1374C9.15878 15.1374 6.95996 13.1104 6.95996 10.6031C6.95996 8.0958 9.15878 6.08057 11.8505 6.08057C14.5421 6.08057 16.741 8.10752 16.741 10.6148C16.741 13.1221 14.5421 15.1374 11.8505 15.1374ZM11.8505 7.83804C10.2077 7.83804 8.85549 9.07999 8.85549 10.6148C8.85549 12.1497 10.1951 13.3916 11.8505 13.3916C13.5059 13.3916 14.8454 12.1497 14.8454 10.6148C14.8454 9.07999 13.4933 7.83804 11.8505 7.83804Z" fill="#292D32"/>
<path d="M11.8492 25.2021C9.9789 25.2021 8.09599 24.546 6.63012 23.2455C2.90224 19.918 -1.21739 14.6105 0.336951 8.29527C1.73964 2.56591 7.13559 0 11.8492 0H11.8618C16.5754 0 21.9713 2.56591 23.374 8.30698C24.9157 14.6222 20.7961 19.918 17.0682 23.2455C15.6023 24.546 13.7194 25.2021 11.8492 25.2021ZM11.8492 1.75747C8.17182 1.75747 3.44562 3.57353 2.19457 8.68191C0.82979 14.2004 4.57031 18.9573 7.95699 21.9684C10.1432 23.9251 13.5678 23.9251 15.754 21.9684C19.128 18.9573 22.8685 14.2004 21.529 8.68191C20.2653 3.57353 15.5265 1.75747 11.8492 1.75747Z" fill="#292D32"/>
</svg>
