<svg width="51" height="51" viewBox="0 0 51 51" fill="none" xmlns="http://www.w3.org/2000/svg">
<path d="M2.40878 50.8846C1.94377 50.8846 1.50194 50.6986 1.17643 50.3731C0.734676 49.9314 0.548788 49.2804 0.711541 48.6759L3.64112 37.7249C1.68808 34.0978 0.664994 30.0058 0.664994 25.8672C0.664994 12.0798 11.8717 0.873047 25.6591 0.873047C39.4466 0.873047 50.6533 12.0798 50.6533 25.8672C50.6533 39.6547 39.4466 50.8614 25.6591 50.8614C21.4508 50.8614 17.3356 49.8151 13.6621 47.8156L2.87381 50.8149C2.71105 50.8614 2.57153 50.8846 2.40878 50.8846ZM13.8945 44.2118C14.1967 44.2118 14.499 44.305 14.778 44.4445C18.0563 46.3743 21.8228 47.3971 25.6591 47.3971C37.5168 47.3971 47.1658 37.7482 47.1658 25.8904C47.1658 14.0328 37.5168 4.38388 25.6591 4.38388C13.8015 4.38388 4.15256 14.0328 4.15256 25.8904C4.15256 29.6803 5.1523 33.3771 7.03559 36.6321C7.26809 37.0274 7.33789 37.5157 7.22164 37.9574L4.89659 46.6531L13.4527 44.2815C13.5922 44.235 13.755 44.2118 13.8945 44.2118Z" fill="#53B175"/>
<path d="M32.0304 39.2832C30.5888 39.2832 29.1008 38.9577 27.543 38.2834C26.0783 37.6557 24.6135 36.8187 23.1952 35.7724C21.8002 34.7494 20.4286 33.5869 19.173 32.3313C17.9175 31.0526 16.7549 29.704 15.7319 28.309C14.6856 26.8442 13.8486 25.4027 13.2441 23.9844C12.5931 22.4499 12.2676 20.9386 12.2676 19.4971C12.2676 18.4741 12.4535 17.4976 12.8023 16.5908C13.1743 15.6375 13.7788 14.7772 14.5693 14.0332C16.0574 12.5684 18.1965 12.0337 19.8938 12.8475C20.475 13.1032 20.9633 13.5218 21.3354 14.0798L24.0322 17.8695C24.3112 18.2415 24.5207 18.6368 24.6835 19.0321C24.8695 19.4971 24.9857 19.9621 24.9857 20.4039C24.9857 21.0084 24.8227 21.6129 24.4972 22.1476C24.288 22.4964 23.9857 22.9149 23.5905 23.3102L23.2882 23.6357C23.4277 23.8217 23.5905 24.0542 23.8462 24.3332C24.3345 24.8912 24.8692 25.4957 25.4505 26.077C26.0318 26.635 26.613 27.193 27.1943 27.6812C27.4733 27.9137 27.706 28.0998 27.892 28.216L28.2173 27.8905C28.6358 27.472 29.0546 27.1465 29.4731 26.9372C30.2403 26.449 31.4259 26.3327 32.4721 26.7745C32.8441 26.914 33.2161 27.1232 33.6114 27.4022L37.4945 30.1458C38.0292 30.5178 38.4475 31.0293 38.7265 31.6106C38.959 32.1918 39.0522 32.7033 39.0522 33.2381C39.0522 33.9356 38.8892 34.6099 38.587 35.2609C38.2847 35.8654 37.936 36.4002 37.5175 36.8884C36.7735 37.7022 35.9134 38.3067 34.9834 38.7019C34.0534 39.0972 33.0534 39.2832 32.0304 39.2832ZM18.1964 15.9863C18.0569 15.9863 17.592 15.9863 17.0108 16.5675C16.569 16.986 16.2667 17.4278 16.0574 17.9161C15.8482 18.4043 15.7551 18.9624 15.7551 19.5204C15.7551 20.4969 15.9876 21.5431 16.4526 22.6592C16.9409 23.8217 17.6617 25.0539 18.5452 26.2862C19.452 27.5185 20.475 28.7508 21.6144 29.89C22.7537 31.0061 23.9625 32.0523 25.218 32.9823C26.427 33.8659 27.6595 34.5634 28.8918 35.0981C30.6588 35.8654 32.2861 36.0514 33.6114 35.4934C34.0764 35.3074 34.4949 34.9819 34.9134 34.5634C35.1227 34.3309 35.2857 34.0984 35.4252 33.7961C35.4949 33.6334 35.5412 33.4473 35.5412 33.2846C35.5412 33.2381 35.5412 33.1683 35.4714 33.0288L31.5886 30.3318C31.4259 30.2155 31.2631 30.1225 31.1236 30.076C31.0306 30.1225 30.8913 30.1923 30.6356 30.448L29.7521 31.3316C29.0778 32.0058 28.0083 32.1918 27.148 31.8896L26.7295 31.7036C26.1947 31.4246 25.59 31.0061 24.9157 30.4248C24.2647 29.8668 23.6372 29.2855 22.9629 28.6345C22.3119 27.9602 21.7307 27.3325 21.1727 26.6815C20.568 25.9607 20.1495 25.3795 19.8705 24.8912L19.6148 24.2867C19.5451 24.0542 19.5217 23.7984 19.5217 23.5659C19.5217 22.9149 19.7543 22.3336 20.1961 21.8686L21.0797 20.9619C21.3354 20.7061 21.4284 20.5666 21.4749 20.4736C21.4052 20.3109 21.3122 20.1714 21.1959 20.0086L18.4754 16.1723L18.1964 15.9863Z" fill="#53B175"/>
</svg>
