<svg width="25" height="25" viewBox="0 0 25 25" fill="none" xmlns="http://www.w3.org/2000/svg">
<path d="M18.6591 25H5.76093C2.70903 25 0.236328 22.4041 0.236328 19.2146V10.5889C0.236328 9.00578 1.17195 7.01524 2.37488 6.03743L8.37843 1.14838C10.1828 -0.318327 13.0677 -0.38817 14.9389 0.985416L21.8224 6.02579C23.1478 6.99196 24.1837 9.06399 24.1837 10.7519V19.2263C24.1837 22.4041 21.711 25 18.6591 25ZM9.40316 2.52197L3.39961 7.41102C2.60879 8.0629 1.90707 9.54125 1.90707 10.5889V19.2146C1.90707 21.438 3.63351 23.2539 5.76093 23.2539H18.6591C20.7865 23.2539 22.5129 21.4496 22.5129 19.2263V10.7519C22.5129 9.63438 21.7444 8.08618 20.8645 7.45759L13.981 2.41721C12.7112 1.48596 10.6172 1.53252 9.40316 2.52197Z" fill="#292D32"/>
<path d="M12.2104 20.3437C11.7537 20.3437 11.375 19.948 11.375 19.4707V15.9785C11.375 15.5012 11.7537 15.1055 12.2104 15.1055C12.667 15.1055 13.0457 15.5012 13.0457 15.9785V19.4707C13.0457 19.948 12.667 20.3437 12.2104 20.3437Z" fill="#292D32"/>
</svg>
