<svg width="21" height="20" viewBox="0 0 21 20" fill="none" xmlns="http://www.w3.org/2000/svg">
<path d="M13.2746 19.9998H7.48207C2.23979 19.9998 0 17.8666 0 12.874V7.35724C0 2.36459 2.23979 0.231445 7.48207 0.231445H9.41292C9.80875 0.231445 10.137 0.544061 10.137 0.921039C10.137 1.29802 9.80875 1.61063 9.41292 1.61063H7.48207C3.03144 1.61063 1.44814 3.11854 1.44814 7.35724V12.874C1.44814 17.1127 3.03144 18.6206 7.48207 18.6206H13.2746C17.7253 18.6206 19.3086 17.1127 19.3086 12.874V11.0351C19.3086 10.6581 19.6368 10.3455 20.0326 10.3455C20.4285 10.3455 20.7567 10.6581 20.7567 11.0351V12.874C20.7567 17.8666 18.5169 19.9998 13.2746 19.9998Z" fill="#292D32"/>
<path d="M6.99853 15.3481C6.40962 15.3481 5.86898 15.1458 5.47316 14.778C5.0001 14.3275 4.79736 13.6747 4.90355 12.9851L5.31869 10.2175C5.39592 9.68422 5.76279 8.99463 6.15861 8.61765L13.7661 1.37229C15.6873 -0.45743 17.6375 -0.45743 19.5587 1.37229C20.611 2.3745 21.0841 3.3951 20.9875 4.4157C20.9007 5.24321 20.4372 6.05233 19.5587 6.87984L11.9511 14.1252C11.5553 14.5022 10.8312 14.8516 10.2713 14.9251L7.3654 15.3205C7.23989 15.3481 7.11439 15.3481 6.99853 15.3481ZM14.7895 2.34692L7.18197 9.59228C6.99853 9.76698 6.78614 10.1715 6.74752 10.4106L6.33239 13.1782C6.29377 13.4448 6.3517 13.6655 6.49651 13.8034C6.64133 13.9413 6.87303 13.9965 7.153 13.9597L10.0589 13.5643C10.3099 13.5276 10.7443 13.3253 10.9181 13.1506L18.5257 5.90522C19.1532 5.30757 19.4815 4.77428 19.5297 4.27778C19.5877 3.68013 19.2594 3.0457 18.5257 2.33772C16.981 0.866589 15.919 1.28035 14.7895 2.34692Z" fill="#292D32"/>
<path d="M17.9567 8.12055C17.8891 8.12055 17.8215 8.11135 17.7636 8.09296C15.2245 7.41256 13.2067 5.4909 12.4923 3.07273C12.3861 2.70494 12.6082 2.32796 12.9944 2.21763C13.3805 2.11649 13.7763 2.32796 13.8825 2.69575C14.4618 4.65419 16.0934 6.20808 18.1497 6.75975C18.5359 6.86089 18.758 7.24706 18.6518 7.61485C18.5649 7.92746 18.2752 8.12055 17.9567 8.12055Z" fill="#292D32"/>
</svg>
