<svg width="25" height="24" viewBox="0 0 25 24" fill="none" xmlns="http://www.w3.org/2000/svg">
<path d="M11.8448 19.9518H8.78865C5.77727 19.9518 4.37793 18.591 4.37793 15.6625V12.6905C4.37793 9.77292 5.77727 8.41211 8.78865 8.41211H11.8448C14.845 8.41211 16.2555 9.77292 16.2555 12.7014V15.6734C16.2443 18.591 14.845 19.9518 11.8448 19.9518ZM8.78865 10.0451C6.69524 10.0451 6.05714 10.6656 6.05714 12.7014V15.6734C6.05714 17.7092 6.69524 18.3297 8.78865 18.3297H11.8448C13.9382 18.3297 14.5763 17.7092 14.5763 15.6734V12.7014C14.5763 10.6656 13.9382 10.0451 11.8448 10.0451H8.78865Z" fill="#292D32"/>
<path d="M16.1998 15.7067H15.405C14.946 15.7067 14.5654 15.3366 14.5654 14.8902V12.6911C14.5654 10.6554 13.9273 10.0348 11.8339 10.0348H9.58375C9.12476 10.0348 8.74414 9.66469 8.74414 9.21834V8.45628C8.74414 5.53869 10.1435 4.16699 13.1549 4.16699H16.211C19.2112 4.16699 20.6218 5.52781 20.6218 8.45628V11.4283C20.6106 14.3459 19.2112 15.7067 16.1998 15.7067ZM10.4234 8.41274H11.8451C14.8453 8.41274 16.2558 9.77355 16.2558 12.702V14.0846C18.3156 14.0737 18.9425 13.4532 18.9425 11.4283V8.45628C18.9425 6.4205 18.3044 5.79997 16.211 5.79997H13.1549C11.0727 5.79997 10.4346 6.40962 10.4234 8.41274Z" fill="#292D32"/>
<path d="M15.853 23.7625C15.5508 23.7625 15.2709 23.5992 15.1254 23.3488C14.9798 23.0875 14.9798 22.7827 15.1366 22.5214L16.312 20.6163C16.5471 20.2244 17.0621 20.1046 17.4651 20.3332C17.8681 20.5618 17.9912 21.0626 17.7561 21.4545L17.4539 21.9444C20.5436 21.2368 22.8609 18.5369 22.8609 15.3145C22.8609 14.8682 23.2415 14.498 23.7005 14.498C24.1595 14.498 24.5401 14.8682 24.5401 15.3145C24.5289 19.974 20.6332 23.7625 15.853 23.7625Z" fill="#292D32"/>
<path d="M1.29957 9.60999C0.840582 9.60999 0.459961 9.23985 0.459961 8.7935C0.459961 4.14496 4.35573 0.356445 9.13587 0.356445C9.43813 0.356445 9.718 0.519743 9.86353 0.770133C10.0091 1.03141 10.0091 1.33623 9.85234 1.59751L8.67689 3.50265C8.4418 3.88368 7.92684 4.01432 7.52383 3.77481C7.13202 3.5462 6.99768 3.04542 7.24396 2.6535L7.54622 2.16361C4.44528 2.87123 2.13917 5.57109 2.13917 8.7935C2.13917 9.23985 1.75855 9.60999 1.29957 9.60999Z" fill="#292D32"/>
</svg>
