<svg width="148" height="138" viewBox="0 0 148 138" fill="none" xmlns="http://www.w3.org/2000/svg">
<path d="M121.004 114.282H13.4449C6.05021 114.282 0 108.232 0 100.837V13.4449C0 6.05021 6.05021 0 13.4449 0H121.004C128.399 0 134.449 6.05021 134.449 13.4449V100.837C134.449 108.232 128.399 114.282 121.004 114.282Z" fill="#FFD233"/>
<path d="M104.198 40.3344C109.767 40.3344 114.282 35.8197 114.282 30.2507C114.282 24.6816 109.767 20.167 104.198 20.167C98.6289 20.167 94.1143 24.6816 94.1143 30.2507C94.1143 35.8197 98.6289 40.3344 104.198 40.3344Z" fill="#D04333"/>
<path d="M53.7792 30.251L16.8057 84.0306H90.7527L53.7792 30.251Z" fill="#FF8A00"/>
<path d="M90.7531 50.418L63.8633 84.0302H117.643L90.7531 50.418Z" fill="#FFB800"/>
<path d="M114.282 137.81C132.846 137.81 147.894 122.762 147.894 104.198C147.894 85.6347 132.846 70.5859 114.282 70.5859C95.7186 70.5859 80.6699 85.6347 80.6699 104.198C80.6699 122.762 95.7186 137.81 114.282 137.81Z" fill="#D04333"/>
<path d="M107.56 84.0312H121.004V124.366H107.56V84.0312Z" fill="white"/>
<path d="M94.1143 97.4766H134.449V110.921H94.1143V97.4766Z" fill="white"/>
</svg>
