<svg width="25" height="23" viewBox="0 0 25 23" fill="none" xmlns="http://www.w3.org/2000/svg">
<path d="M23.1633 7.00669L14.8243 0.815919C13.5368 -0.145102 11.455 -0.145102 10.1795 0.804745L1.84047 7.00669C0.901884 7.69952 0.300223 9.16334 0.504788 10.2585L2.1052 19.1535C2.394 20.7403 4.03052 22.0254 5.7633 22.0254H19.2405C20.9613 22.0254 22.6098 20.7291 22.8986 19.1535L24.499 10.2585C24.6916 9.16334 24.0899 7.69952 23.1633 7.00669ZM12.5019 14.9742C10.8413 14.9742 9.4936 13.7226 9.4936 12.1805C9.4936 10.6384 10.8413 9.38684 12.5019 9.38684C14.1625 9.38684 15.5102 10.6384 15.5102 12.1805C15.5102 13.7226 14.1625 14.9742 12.5019 14.9742Z" fill="white"/>
</svg>
