<svg width="26" height="22" viewBox="0 0 26 22" fill="none" xmlns="http://www.w3.org/2000/svg">
<path d="M19.9654 20.6748C19.5975 20.6748 19.2296 20.5968 18.8974 20.4311L14.1388 18.1112C13.6404 18.1015 13.142 18.0723 12.6674 18.0139C12.3469 17.9749 12.074 17.7993 11.9553 17.5459C11.8367 17.2925 11.896 17.0196 12.1096 16.8149C12.8928 16.0644 13.2963 15.1677 13.2963 14.2125C13.2963 11.8537 10.7687 9.9336 7.65957 9.9336C6.49663 9.9336 5.38115 10.1969 4.44367 10.7037C4.18261 10.8402 3.8622 10.8597 3.5774 10.7524C3.30447 10.6452 3.10275 10.4307 3.06715 10.1773C3.03155 9.90436 3.00781 9.63155 3.00781 9.34889C3.00781 4.5144 8.1105 0.586426 14.3762 0.586426C20.6418 0.586426 25.7445 4.5144 25.7445 9.34889C25.7445 12 24.2493 14.4367 21.6149 16.1034L22.0183 18.7546C22.1133 19.4174 21.7573 20.0412 21.0809 20.4018C20.7486 20.5773 20.357 20.6748 19.9654 20.6748ZM14.3643 16.6395C14.5304 16.6297 14.6966 16.6688 14.839 16.7468L19.8111 19.1737C19.9417 19.242 20.0485 19.2127 20.1197 19.1737C20.179 19.1445 20.2739 19.0665 20.2502 18.9301L19.7874 15.85C19.7518 15.577 19.8942 15.314 20.1553 15.158C22.5761 13.7642 23.9645 11.6393 23.9645 9.3293C23.9645 5.30388 19.6687 2.02894 14.3762 2.02894C9.28531 2.02894 5.10821 5.07 4.79968 8.89078C5.68968 8.60812 6.6509 8.45215 7.6477 8.45215C11.7417 8.45215 15.0644 11.0253 15.0644 14.193C15.0763 15.0507 14.8271 15.8792 14.3643 16.6395Z" fill="#292D32"/>
<path d="M4.19464 21.5329C3.8861 21.5329 3.58943 21.4647 3.3165 21.3185C2.7825 21.0358 2.49771 20.5485 2.56891 20.0319L2.80623 18.5309C1.20422 17.4587 0.254883 15.87 0.254883 14.2033C0.254883 12.3026 1.4653 10.5287 3.49451 9.46629C4.71678 8.81326 6.16451 8.4624 7.67159 8.4624C11.7656 8.4624 15.0883 11.0355 15.0883 14.2033C15.0883 15.4899 14.5187 16.757 13.4745 17.7609C12.1335 19.0962 10.128 19.8759 7.92079 19.9344L5.02531 21.3477C4.76424 21.4744 4.47944 21.5329 4.19464 21.5329ZM7.65972 9.92439C6.49678 9.92439 5.3813 10.1876 4.44383 10.6944C2.92488 11.4936 2.02303 12.7997 2.02303 14.2033C2.02303 15.5581 2.82997 16.7959 4.25398 17.5952C4.52692 17.7511 4.66931 18.0143 4.63371 18.2872L4.37264 19.9539L7.20879 18.5699C7.35119 18.5016 7.50545 18.4627 7.65972 18.4627C9.40413 18.4627 11.0536 17.8486 12.0979 16.8057C12.8811 16.0454 13.2965 15.1487 13.2965 14.1935C13.2965 11.8445 10.7688 9.92439 7.65972 9.92439Z" fill="#292D32"/>
</svg>
