<svg width="21" height="23" viewBox="0 0 21 23" fill="none" xmlns="http://www.w3.org/2000/svg">
<path d="M7.36308 0C4.65162 0 2.44727 2.3933 2.44727 5.33717C2.44727 8.22486 4.52743 10.562 7.23889 10.6631C7.32169 10.6519 7.40448 10.6519 7.46657 10.6631H7.51832H7.53902C10.1884 10.562 12.2686 8.22486 12.2789 5.33717C12.2789 2.3933 10.0745 0 7.36308 0Z" fill="#292D32"/>
<path d="M12.6212 13.6509C9.73378 11.561 5.02499 11.561 2.1169 13.6509C0.802561 14.606 0.078125 15.8982 0.078125 17.2802C0.078125 18.6623 0.802561 19.9432 2.10655 20.887C3.55542 21.9432 5.45965 22.4713 7.36388 22.4713C9.26807 22.4713 11.1723 21.9432 12.6212 20.887C13.9252 19.932 14.6496 18.651 14.6496 17.2577C14.6393 15.8757 13.9252 14.5948 12.6212 13.6509Z" fill="#292D32"/>
<path d="M18.7357 5.99794C18.9012 8.17775 17.4731 10.0878 15.4964 10.3463C15.486 10.3463 15.486 10.3463 15.4757 10.3463H15.4446C15.3826 10.3463 15.3205 10.3463 15.2687 10.3687C14.2648 10.4249 13.3438 10.0766 12.6504 9.43615C13.7163 8.40248 14.3269 6.85189 14.2028 5.16646C14.1303 4.25634 13.8405 3.42486 13.4059 2.71698C13.7991 2.5035 14.2545 2.36866 14.7202 2.32372C16.7486 2.1327 18.5597 3.77318 18.7357 5.99794Z" fill="#292D32"/>
<path d="M20.8047 16.3939C20.7219 17.4838 20.0802 18.4276 19.0039 19.0681C17.969 19.6861 16.665 19.9782 15.3714 19.9445C16.1165 19.2142 16.5512 18.304 16.634 17.3377C16.7375 15.9444 16.1269 14.6073 14.9057 13.5399C14.2123 12.9444 13.4051 12.4725 12.5254 12.1241C14.8125 11.405 17.6896 11.8882 19.4593 13.4388C20.4114 14.2703 20.8978 15.3152 20.8047 16.3939Z" fill="#292D32"/>
</svg>
