<svg width="91" height="113" viewBox="0 0 91 113" fill="none" xmlns="http://www.w3.org/2000/svg">
<path d="M45.1667 0.0761719C26.7007 0.0761719 11.5703 15.1633 11.5703 33.5766C11.5703 40.711 13.8486 47.3408 17.7054 52.7919L41.0669 93.176C44.3385 97.4501 46.5139 96.6384 49.2343 92.9509L75.0005 49.1015C75.521 48.1599 75.9289 47.1572 76.285 46.1334C77.8754 42.2489 78.7601 38.0115 78.7601 33.5766C78.7601 15.1633 63.6327 0.0761719 45.1667 0.0761719ZM45.1667 15.7736C55.1101 15.7736 63.0177 23.6616 63.0177 33.5766C63.0177 43.4916 55.1101 51.3766 45.1667 51.3766C35.2233 51.3766 27.3127 43.4916 27.3127 33.5766C27.3127 23.6616 35.2233 15.7736 45.1667 15.7736Z" fill="#7C7C7C"/>
<path d="M66.5227 55.3057L66.4683 55.4481C66.486 55.4049 66.4989 55.3615 66.5164 55.3182C66.5181 55.3138 66.5209 55.3101 66.5227 55.3057Z" fill="#7C7C7C"/>
<path d="M27.104 78.0576C11.1525 80.3122 -0.00439453 85.7043 -0.00439453 93.642C-0.00439453 104.333 18.6376 113 45.1652 113C71.6929 113 90.3348 104.333 90.3348 93.642C90.3348 85.7046 79.1792 80.3123 63.2287 78.0576C62.4928 79.3125 61.7547 80.5655 61.0187 81.8203C73.0406 83.4882 81.3009 86.9938 81.3009 91.0615C81.3009 96.7636 65.1224 101.386 45.1652 101.386C25.208 101.386 9.02953 96.7636 9.02953 91.0615C9.02807 87.008 17.2348 83.5055 29.2941 81.8313C28.5651 80.5727 27.8323 79.3166 27.104 78.0576Z" fill="#7C7C7C"/>
</svg>
