<svg width="27" height="25" viewBox="0 0 27 25" fill="none" xmlns="http://www.w3.org/2000/svg">
<path d="M17.5836 25H17.4246C11.9946 25 9.37741 22.87 8.92491 18.0988C8.87599 17.5998 9.24289 17.1495 9.75654 17.1008C10.258 17.0521 10.7105 17.4294 10.7594 17.9284C11.114 21.7502 12.9241 23.1743 17.4369 23.1743H17.5958C22.5734 23.1743 24.3345 21.4216 24.3345 16.4679V8.53212C24.3345 3.57838 22.5734 1.8257 17.5958 1.8257H17.4369C12.8996 1.8257 11.0896 3.2741 10.7594 7.16893C10.6982 7.66796 10.2824 8.04527 9.75654 7.99658C9.24289 7.96007 8.87599 7.50973 8.91268 7.0107C9.3285 2.1665 11.9579 0 17.4246 0H17.5836C23.5884 0 26.1567 2.55599 26.1567 8.53212V16.4679C26.1567 22.444 23.5884 25 17.5836 25Z" fill="#292D32"/>
<path d="M17.1429 13.4131H1.39087C0.889446 13.4131 0.473633 12.9993 0.473633 12.5003C0.473633 12.0012 0.889446 11.5874 1.39087 11.5874H17.1429C17.6443 11.5874 18.0601 12.0012 18.0601 12.5003C18.0601 12.9993 17.6565 13.4131 17.1429 13.4131Z" fill="#292D32"/>
<path d="M14.4161 17.4907C14.1838 17.4907 13.9514 17.4055 13.768 17.2229C13.4133 16.8699 13.4133 16.2857 13.768 15.9327L17.2168 12.5004L13.768 9.06808C13.4133 8.71511 13.4133 8.13088 13.768 7.77791C14.1226 7.42494 14.7096 7.42494 15.0643 7.77791L19.1613 11.8553C19.516 12.2083 19.516 12.7925 19.1613 13.1455L15.0643 17.2229C14.8809 17.4055 14.6485 17.4907 14.4161 17.4907Z" fill="#292D32"/>
</svg>
