<svg width="21" height="27" viewBox="0 0 21 27" fill="none" xmlns="http://www.w3.org/2000/svg">
<path d="M15.5329 26.0766H5.49013C3.56871 26.0766 2.12765 25.5187 1.23397 24.415C0.34028 23.3113 -0.00603424 21.7103 0.228558 19.6363L1.23397 10.5399C1.52441 7.85947 2.14999 5.45801 6.50671 5.45801H14.5498C18.8954 5.45801 19.521 7.85947 19.8226 10.5399L20.828 19.6363C21.0514 21.7103 20.7163 23.3234 19.8226 24.415C18.8954 25.5187 17.4655 26.0766 15.5329 26.0766ZM6.49553 7.2773C3.27826 7.2773 3.12186 8.65994 2.88727 10.7461L1.88189 19.8425C1.71432 21.3828 1.91539 22.5108 2.48511 23.2021C3.05484 23.8935 4.06023 24.2452 5.49013 24.2452H15.5329C16.9628 24.2452 17.9682 23.8935 18.5379 23.2021C19.1076 22.5108 19.3087 21.3828 19.1412 19.8425L18.1358 10.7461C17.9012 8.64781 17.7559 7.2773 14.5275 7.2773H6.49553Z" fill="#292D32"/>
<path d="M14.9846 9.09644C14.5266 9.09644 14.1468 8.68407 14.1468 8.1868V3.94179C14.1468 2.6319 13.3984 1.81929 12.1919 1.81929H8.84056C7.63408 1.81929 6.88562 2.6319 6.88562 3.94179V8.1868C6.88562 8.68407 6.5058 9.09644 6.04779 9.09644C5.58978 9.09644 5.20996 8.68407 5.20996 8.1868V3.94179C5.20996 1.62523 6.70688 0 8.84056 0H12.1919C14.3256 0 15.8225 1.62523 15.8225 3.94179V8.1868C15.8225 8.68407 15.4427 9.09644 14.9846 9.09644Z" fill="#292D32"/>
<path d="M19.9111 20.0483H6.04779C5.58978 20.0483 5.20996 19.6359 5.20996 19.1386C5.20996 18.6414 5.58978 18.229 6.04779 18.229H19.9111C20.3691 18.229 20.7489 18.6414 20.7489 19.1386C20.7489 19.6359 20.3691 20.0483 19.9111 20.0483Z" fill="#292D32"/>
</svg>
